<?xml version="1.0" standalone="no"?>
<!DOCTYPE svg PUBLIC "-//W3C//DTD SVG 20010904//EN"
 "http://www.w3.org/TR/2001/REC-SVG-20010904/DTD/svg10.dtd">
<svg version="1.0" xmlns="http://www.w3.org/2000/svg"
 width="500.000000pt" height="500.000000pt" viewBox="0 0 500.000000 500.000000"
 preserveAspectRatio="xMidYMid meet">

<g transform="translate(0.000000,500.000000) scale(0.100000,-0.100000)"
fill="#000000" stroke="none">
<path d="M2378 4115 c-34 -19 -50 -71 -37 -119 10 -37 97 -132 141 -155 25
-13 32 -12 64 5 43 23 120 103 134 139 24 64 -3 127 -59 140 -34 7 -85 -15
-95 -41 -5 -13 -11 -11 -41 15 -39 34 -66 38 -107 16z"/>
<path d="M2095 3798 c-6 -19 -24 -42 -43 -55 l-33 -22 28 -13 c15 -7 36 -29
45 -48 l18 -34 11 32 c7 20 24 39 42 49 29 15 30 16 12 29 -10 8 -22 14 -26
14 -4 0 -14 18 -23 40 -9 22 -17 40 -19 40 -2 0 -7 -15 -12 -32z"/>
<path d="M2905 3815 c-19 -54 -27 -66 -57 -78 l-32 -13 31 -13 c21 -8 38 -27
51 -54 l19 -41 8 33 c5 23 18 39 41 53 l34 20 -32 21 c-17 12 -37 38 -44 57
-10 30 -13 32 -19 15z"/>
<path d="M1853 3804 c-3 -8 2 -23 11 -32 15 -15 17 -15 32 0 21 21 11 48 -16
48 -11 0 -23 -7 -27 -16z"/>
<path d="M3127 3814 c-14 -15 -6 -43 14 -49 25 -8 42 6 37 31 -3 19 -38 31
-51 18z"/>
<path d="M2505 3692 c-10 -43 -34 -73 -71 -88 -43 -18 -43 -27 1 -43 36 -13
74 -68 76 -108 0 -10 11 5 24 34 18 41 32 56 66 74 l43 21 -30 15 c-45 23 -72
53 -79 84 -9 39 -22 44 -30 11z"/>
<path d="M3544 3665 c-28 -43 -45 -118 -43 -195 0 -41 1 -92 0 -112 l-1 -38
-64 44 c-200 137 -511 154 -716 39 -25 -14 -82 -64 -127 -110 l-82 -86 -77 82
c-42 45 -96 93 -119 107 -82 47 -183 75 -296 81 -93 5 -118 2 -210 -21 -134
-35 -216 -83 -304 -178 -159 -175 -213 -425 -146 -682 46 -175 181 -390 385
-610 20 -22 36 -41 36 -42 0 -2 -33 -23 -72 -48 -164 -102 -336 -142 -510
-119 -87 12 -92 11 -102 -24 -6 -20 0 -24 76 -49 69 -22 102 -27 198 -27 188
-2 326 49 455 166 39 35 115 97 170 139 55 41 138 115 185 164 85 88 200 225
200 238 0 3 -56 6 -125 6 l-125 0 0 120 0 120 130 0 130 0 0 115 0 115 120 0
120 0 0 -80 c0 -44 4 -80 8 -80 4 0 15 12 24 28 26 43 171 209 220 250 124
108 228 171 353 213 61 21 88 24 210 24 149 -1 198 -12 316 -71 46 -23 47 -23
64 -3 18 18 17 20 -5 44 -24 25 -104 76 -175 110 l-40 19 55 7 c88 10 157 37
202 80 34 32 39 41 28 54 -33 39 -200 2 -287 -64 l-52 -40 28 47 c56 90 63
190 20 261 -23 37 -33 39 -55 6z m-1472 -493 c7 -8 30 -23 51 -32 l38 -17 -38
-16 c-46 -18 -56 -29 -73 -82 l-13 -40 -14 39 c-17 50 -31 66 -72 83 l-35 15
45 22 c38 19 46 29 59 70 l14 48 13 -38 c7 -20 19 -44 25 -52z m-384 7 c11
-22 29 -37 52 -44 l35 -12 -32 -7 c-35 -8 -63 -39 -63 -68 0 -30 -17 -20 -24
13 -4 23 -15 34 -44 47 l-39 16 39 18 c29 13 40 24 44 48 7 35 9 34 32 -11z
m1216 9 c8 -14 7 -21 -6 -34 -30 -30 -75 9 -48 42 16 18 39 15 54 -8z m-1055
-392 l36 -15 -33 -12 c-25 -8 -39 -23 -52 -53 -15 -32 -19 -36 -19 -18 -1 37
-18 59 -53 72 l-33 11 35 15 c40 17 49 29 51 64 1 22 3 21 16 -12 11 -26 26
-41 52 -52z m-314 34 c9 -15 -14 -40 -31 -33 -22 8 -18 43 5 43 11 0 23 -5 26
-10z m70 -270 c7 -11 -12 -40 -25 -40 -11 0 -21 30 -14 41 7 12 31 11 39 -1z
m230 -31 c0 -17 -6 -24 -20 -24 -23 0 -33 34 -13 46 20 13 33 5 33 -22z m-87
-212 c4 -21 -25 -34 -40 -19 -8 8 -8 16 2 27 16 19 34 15 38 -8z"/>
<path d="M1742 3643 c4 -21 33 -25 33 -3 0 8 -8 16 -18 18 -14 3 -18 -1 -15
-15z"/>
<path d="M3257 3654 c-14 -15 -6 -34 14 -34 14 0 19 5 17 17 -3 18 -20 27 -31
17z"/>
<path d="M1244 3406 c-10 -27 1 -51 26 -54 31 -5 53 23 39 49 -12 22 -57 25
-65 5z"/>
<path d="M3365 3093 c-79 -11 -202 -59 -280 -109 -75 -47 -236 -199 -300 -281
l-56 -73 80 0 81 0 0 -120 0 -120 -130 0 -130 0 0 -115 0 -115 -120 0 c-88 0
-120 3 -120 12 0 7 -48 -37 -107 -98 -60 -61 -157 -148 -216 -193 -106 -82
-108 -84 -90 -103 53 -60 462 -401 512 -428 31 -16 65 7 298 198 268 220 373
313 487 433 311 326 453 634 419 907 -14 111 -36 167 -71 181 -69 27 -167 36
-257 24z m14 -273 c4 -8 27 -24 51 -36 42 -20 43 -21 19 -27 -42 -11 -78 -45
-85 -83 -9 -47 -20 -51 -28 -10 -9 46 -33 73 -81 90 -34 12 -37 15 -20 21 83
32 85 33 97 80 l13 47 13 -33 c7 -19 16 -41 21 -49z m-261 -63 c4 -20 -25 -34
-39 -20 -14 14 1 45 20 41 9 -2 17 -11 19 -21z m142 -348 c23 -41 -38 -68 -63
-27 -8 12 -7 21 2 32 19 22 48 20 61 -5z m-220 -331 l31 -10 -33 -17 c-21 -10
-37 -27 -43 -48 l-11 -33 -13 36 c-9 24 -23 40 -43 48 l-30 13 31 12 c19 8 34
25 41 44 l11 32 14 -33 c9 -21 25 -37 45 -44z m-441 -306 l44 -15 -46 -19
c-36 -16 -49 -28 -61 -59 -9 -22 -16 -47 -17 -57 0 -9 -8 3 -17 28 -23 63 -29
70 -74 90 -43 19 -42 21 14 39 32 11 39 19 54 63 l16 50 22 -53 c19 -47 26
-54 65 -67z"/>
<path d="M3945 3018 c-6 -18 -24 -42 -41 -53 l-31 -21 29 -17 c16 -9 35 -31
42 -49 l14 -32 15 35 c9 23 26 40 46 49 l32 13 -31 19 c-17 10 -38 34 -46 53
-8 19 -16 35 -17 35 -2 0 -7 -15 -12 -32z"/>
<path d="M1050 2985 c-8 -26 -21 -41 -43 -50 l-30 -12 29 -14 c16 -8 36 -29
44 -47 l16 -33 12 34 c7 20 23 39 40 47 l27 12 -24 11 c-13 6 -32 29 -41 50
l-18 39 -12 -37z"/>
<path d="M904 2556 c-38 -17 -59 -63 -49 -112 7 -40 84 -129 142 -165 32 -20
34 -20 61 -3 60 39 140 130 147 168 15 76 -39 135 -106 116 -19 -6 -42 -20
-52 -33 -16 -20 -18 -21 -28 -4 -10 16 -60 47 -76 47 -4 -1 -22 -7 -39 -14z"/>
<path d="M3863 2560 c-61 -25 -70 -119 -17 -183 16 -20 53 -54 83 -78 50 -40
54 -42 78 -28 41 26 140 129 153 160 10 24 10 39 1 70 -22 73 -113 87 -157 25
l-15 -21 -17 21 c-32 40 -67 51 -109 34z"/>
<path d="M3745 2170 c-7 -30 -47 -70 -71 -70 -8 0 -14 -4 -14 -10 0 -5 6 -10
14 -10 24 0 66 -40 75 -73 l8 -32 12 30 c15 36 50 75 68 75 22 0 14 14 -20 35
-18 12 -35 33 -41 53 -11 40 -22 41 -31 2z"/>
<path d="M1270 2173 c0 -31 -39 -82 -72 -96 l-33 -14 38 -18 c24 -13 43 -32
55 -57 9 -20 19 -38 22 -38 4 0 12 16 18 34 8 21 27 44 48 57 l35 21 -31 19
c-18 12 -40 38 -51 64 -21 48 -29 55 -29 28z"/>
<path d="M3547 2063 c-4 -3 -7 -15 -7 -25 0 -13 7 -18 25 -18 20 0 25 5 25 25
0 18 -5 25 -18 25 -10 0 -22 -3 -25 -7z"/>
<path d="M1444 2045 c-4 -9 -2 -21 4 -27 16 -16 47 -5 47 17 0 26 -42 34 -51
10z"/>
<path d="M3460 1880 c0 -27 -28 -70 -46 -70 -25 0 -25 -20 1 -30 15 -6 32 -23
38 -40 14 -38 20 -38 34 0 7 20 22 34 42 41 l31 11 -32 22 c-19 12 -37 35 -43
54 -10 36 -25 43 -25 12z"/>
<path d="M1846 1560 c-3 -20 -16 -37 -36 -48 -36 -21 -37 -26 -4 -40 14 -7 32
-29 41 -50 l15 -37 12 35 c7 24 21 40 43 50 40 19 41 23 4 37 -19 7 -33 22
-42 47 -16 44 -25 46 -33 6z"/>
<path d="M3145 1558 c-7 -22 -20 -38 -42 -48 -18 -8 -33 -17 -33 -20 0 -3 15
-12 33 -20 22 -10 36 -26 43 -50 l12 -35 15 37 c9 21 27 43 41 50 33 14 32 19
-3 39 -18 11 -31 28 -36 48 -9 40 -18 39 -30 -1z"/>
<path d="M3463 1554 c-3 -8 -1 -20 5 -26 16 -16 47 -5 50 20 3 18 -1 22 -23
22 -14 0 -28 -7 -32 -16z"/>
<path d="M1647 1394 c-14 -15 -6 -34 14 -34 14 0 19 5 17 17 -3 18 -20 27 -31
17z"/>
<path d="M2094 1327 c-7 -22 -22 -39 -49 -54 l-39 -22 26 -6 c32 -8 52 -30 65
-70 l10 -30 12 38 c8 24 23 43 42 53 l30 15 -36 33 c-19 18 -35 40 -35 49 0
30 -17 26 -26 -6z"/>
<path d="M2895 1333 c-8 -33 -33 -63 -51 -63 -27 0 -22 -19 10 -38 23 -14 36
-30 41 -53 l8 -33 16 34 c9 19 30 44 47 55 l31 21 -29 17 c-16 9 -35 32 -44
52 -8 19 -16 35 -18 35 -2 0 -7 -12 -11 -27z"/>
<path d="M2422 1218 c-8 -8 -9 -15 -1 -25 15 -17 25 -17 32 1 8 21 -16 39 -31
24z"/>
<path d="M2543 1194 c-8 -21 13 -42 28 -27 13 13 5 43 -11 43 -6 0 -13 -7 -17
-16z"/>
<path d="M2373 1025 c-12 -8 -26 -30 -33 -49 -16 -50 9 -104 81 -171 93 -85
86 -85 173 -4 80 74 105 122 92 173 -17 68 -105 90 -148 38 l-23 -28 -27 28
c-30 32 -80 38 -115 13z"/>
</g>
</svg>
